<svg width="21" height="17" viewBox="0 0 21 17" fill="none" xmlns="http://www.w3.org/2000/svg">
<path d="M3.97241 3.08622C4.01221 -0.186203 8.50921 -0.0475292 8.39371 3.08622V13.7417" stroke="#9CA3AF" stroke-width="0.905077" stroke-miterlimit="10" stroke-linecap="round" stroke-linejoin="round"/>
<path d="M11.2629 3.08622C11.3014 -0.186203 15.7997 -0.0475292 15.6842 3.08622V13.7417" stroke="#9CA3AF" stroke-width="0.905077" stroke-miterlimit="10" stroke-linecap="round" stroke-linejoin="round"/>
<path d="M15.6843 5.19165H8.3938V6.64618H15.6843V5.19165Z" stroke="#9CA3AF" stroke-width="0.905077" stroke-miterlimit="10" stroke-linecap="round" stroke-linejoin="round"/>
<path d="M15.6843 9.56552H8.3938V11.0201H15.6843V9.56552Z" stroke="#9CA3AF" stroke-width="0.905077" stroke-miterlimit="10" stroke-linecap="round" stroke-linejoin="round"/>
<path d="M0.832275 13.2192C1.80663 12.526 2.72838 12.1614 3.90044 12.8225C5.10466 13.5979 6.68492 14.34 8.39361 13.7417C10.0908 12.9252 10.8802 12.5876 11.8829 13.3347C12.9625 14.1153 14.2167 14.2796 15.6841 13.7417C17.412 12.9715 18.891 12.4721 20.158 13.7893" stroke="#9CA3AF" stroke-width="0.905077" stroke-miterlimit="10" stroke-linecap="round" stroke-linejoin="round"/>
<path d="M3.34082 15.4376C5.1509 15.7008 6.79284 17.1772 8.50153 15.5904C9.42073 15.073 10.553 15.0255 11.9819 15.6289C13.3491 16.3016 14.5391 16.3979 15.4994 15.7444C16.3492 15.0755 17.5816 15.1127 18.6343 15.6674" stroke="#9CA3AF" stroke-width="0.905077" stroke-miterlimit="10" stroke-linecap="round" stroke-linejoin="round"/>
<path d="M1.75415 14.8591V14.8484" stroke="#9CA3AF" stroke-width="0.905077" stroke-miterlimit="10" stroke-linecap="round" stroke-linejoin="round"/>
</svg>
